<svg width="45" height="43" viewBox="0 0 45 43" fill="none" xmlns="http://www.w3.org/2000/svg">
<path d="M33.75 23.2917H24.375V32.25C24.375 33.2354 23.5313 34.0417 22.5 34.0417C21.4687 34.0417 20.625 33.2354 20.625 32.25V23.2917H11.25C10.2187 23.2917 9.375 22.4854 9.375 21.5C9.375 20.5146 10.2187 19.7083 11.25 19.7083H20.625V10.75C20.625 9.76459 21.4687 8.95834 22.5 8.95834C23.5313 8.95834 24.375 9.76459 24.375 10.75V19.7083H33.75C34.7813 19.7083 35.625 20.5146 35.625 21.5C35.625 22.4854 34.7813 23.2917 33.75 23.2917Z" fill="white"/>
</svg>
