<svg width="44" height="45" viewBox="0 0 44 45" fill="none" xmlns="http://www.w3.org/2000/svg">
<path d="M38.9167 0.375H5.08333C2.425 0.375 0.25 2.5875 0.25 5.29167V39.7083C0.25 42.4125 2.425 44.625 5.08333 44.625H38.9167C41.575 44.625 43.75 42.4125 43.75 39.7083V5.29167C43.75 2.5875 41.575 0.375 38.9167 0.375ZM12.3333 34.7917C11.0042 34.7917 9.91667 33.6854 9.91667 32.3333V24.9583C9.91667 23.6062 11.0042 22.5 12.3333 22.5C13.6625 22.5 14.75 23.6062 14.75 24.9583V32.3333C14.75 33.6854 13.6625 34.7917 12.3333 34.7917ZM22 34.7917C20.6708 34.7917 19.5833 33.6854 19.5833 32.3333V29.875C19.5833 28.5229 20.6708 27.4167 22 27.4167C23.3292 27.4167 24.4167 28.5229 24.4167 29.875V32.3333C24.4167 33.6854 23.3292 34.7917 22 34.7917ZM22 22.5C20.6708 22.5 19.5833 21.3937 19.5833 20.0417C19.5833 18.6896 20.6708 17.5833 22 17.5833C23.3292 17.5833 24.4167 18.6896 24.4167 20.0417C24.4167 21.3937 23.3292 22.5 22 22.5ZM31.6667 34.7917C30.3375 34.7917 29.25 33.6854 29.25 32.3333V12.6667C29.25 11.3146 30.3375 10.2083 31.6667 10.2083C32.9958 10.2083 34.0833 11.3146 34.0833 12.6667V32.3333C34.0833 33.6854 32.9958 34.7917 31.6667 34.7917Z" fill="#503E66"/>
</svg>
