<svg width="25" height="30" viewBox="0 0 25 30" fill="none" xmlns="http://www.w3.org/2000/svg">
<path d="M2.25002 26.6667C2.25002 28.5 3.78752 30 5.66669 30H19.3334C21.2125 30 22.75 28.5 22.75 26.6667V10C22.75 8.16667 21.2125 6.66667 19.3334 6.66667H5.66669C3.78752 6.66667 2.25002 8.16667 2.25002 10V26.6667ZM7.37502 10H17.625C18.5646 10 19.3334 10.75 19.3334 11.6667V25C19.3334 25.9167 18.5646 26.6667 17.625 26.6667H7.37502C6.43544 26.6667 5.66669 25.9167 5.66669 25V11.6667C5.66669 10.75 6.43544 10 7.37502 10ZM18.4792 1.66667L17.2663 0.483333C16.9588 0.183333 16.5146 0 16.0704 0H8.9296C8.48544 0 8.04127 0.183333 7.73377 0.483333L6.52085 1.66667H2.25002C1.31044 1.66667 0.541687 2.41667 0.541687 3.33333C0.541687 4.25 1.31044 5 2.25002 5H22.75C23.6896 5 24.4584 4.25 24.4584 3.33333C24.4584 2.41667 23.6896 1.66667 22.75 1.66667H18.4792Z" fill="white"/>
</svg>
