<svg width="37" height="48" viewBox="0 0 37 48" fill="none" xmlns="http://www.w3.org/2000/svg">
<path d="M16.9583 36H20.0417C20.8896 36 21.5833 35.1 21.5833 34C21.5833 32.9 20.8896 32 20.0417 32H16.9583C16.1104 32 15.4167 32.9 15.4167 34C15.4167 35.1 16.1104 36 16.9583 36ZM4.625 14C4.625 15.1 5.31875 16 6.16667 16H30.8333C31.6812 16 32.375 15.1 32.375 14C32.375 12.9 31.6812 12 30.8333 12H6.16667C5.31875 12 4.625 12.9 4.625 14ZM10.7917 26H26.2083C27.0562 26 27.75 25.1 27.75 24C27.75 22.9 27.0562 22 26.2083 22H10.7917C9.94375 22 9.25 22.9 9.25 24C9.25 25.1 9.94375 26 10.7917 26Z" fill="#B3747C"/>
</svg>
