<svg width="35" height="35" viewBox="0 0 35 35" fill="none" xmlns="http://www.w3.org/2000/svg">
<path d="M25.8107 23.1729L20.1523 17.5L25.8253 11.8271C26.394 11.2583 26.394 10.3396 25.8253 9.77083C25.2565 9.20208 24.3378 9.20208 23.769 9.77083L17.0753 16.4646C16.5065 17.0333 16.5065 17.9521 17.0753 18.5208L23.769 25.2146C24.3378 25.7833 25.2565 25.7833 25.8253 25.2146C26.3794 24.6604 26.3794 23.7271 25.8107 23.1729ZM10.2065 8.75C11.0086 8.75 11.6649 9.40625 11.6649 10.2083V24.7917C11.6649 25.5938 11.0086 26.25 10.2065 26.25C9.40443 26.25 8.74818 25.5938 8.74818 24.7917V10.2083C8.74818 9.40625 9.40443 8.75 10.2065 8.75Z" fill="#343434"/>
</svg>
