<svg width="54" height="51" viewBox="0 0 54 51" fill="none" xmlns="http://www.w3.org/2000/svg">
<path id="icn " d="M52.8802 25.0906L29.8651 2.08779L28.3224 0.545141C27.9709 0.195969 27.4956 0 27.0001 0C26.5047 0 26.0293 0.195969 25.6778 0.545141L1.12003 25.0906C0.759859 25.4493 0.47521 25.8766 0.282885 26.3472C0.0905606 26.8178 -0.00554309 27.3221 0.000246886 27.8304C0.024072 29.927 1.76926 31.6007 3.86588 31.6007H6.3973V51H47.6029V31.6007H50.1879C51.2065 31.6007 52.1654 31.2016 52.8861 30.4809C53.241 30.1272 53.5222 29.7066 53.7134 29.2435C53.9046 28.7803 54.002 28.2838 54 27.7828C54 26.7702 53.6009 25.8113 52.8802 25.0906ZM30.3356 46.7115H23.6646V34.5609H30.3356V46.7115ZM43.3144 27.3122V46.7115H34.1477V33.1314C34.1477 31.8151 33.0815 30.749 31.7651 30.749H22.2351C20.9187 30.749 19.8526 31.8151 19.8526 33.1314V46.7115H10.6858V27.3122H4.96779L27.0061 5.29222L28.382 6.6681L49.0384 27.3122H43.3144Z" fill="#BA7489"/>
</svg>
