<svg width="187" height="187" viewBox="0 0 187 187" fill="none" xmlns="http://www.w3.org/2000/svg">
<path d="M85.7083 54.5417H101.292V70.125H85.7083V54.5417ZM85.7083 85.7083H101.292V132.458H85.7083V85.7083ZM93.5 15.5833C50.49 15.5833 15.5833 50.49 15.5833 93.5C15.5833 136.51 50.49 171.417 93.5 171.417C136.51 171.417 171.417 136.51 171.417 93.5C171.417 50.49 136.51 15.5833 93.5 15.5833ZM93.5 155.833C59.1387 155.833 31.1667 127.861 31.1667 93.5C31.1667 59.1388 59.1387 31.1667 93.5 31.1667C127.861 31.1667 155.833 59.1388 155.833 93.5C155.833 127.861 127.861 155.833 93.5 155.833Z" fill="#503E66"/>
</svg>
