<svg width="33" height="33" viewBox="0 0 33 33" fill="none" xmlns="http://www.w3.org/2000/svg">
<path d="M8.65048 11.1512L13.9992 16.5L8.65048 21.8488C8.11423 22.385 8.11423 23.2512 8.65048 23.7875C9.18673 24.3237 10.053 24.3237 10.5892 23.7875L16.9005 17.4762C17.4367 16.94 17.4367 16.0738 16.9005 15.5375L10.5892 9.2125C10.053 8.67625 9.18673 8.67625 8.65048 9.2125C8.12798 9.74875 8.12798 10.6287 8.65048 11.1512ZM23.3767 8.25C24.133 8.25 24.7517 8.86875 24.7517 9.625V23.375C24.7517 24.1313 24.133 24.75 23.3767 24.75C22.6205 24.75 22.0017 24.1313 22.0017 23.375V9.625C22.0017 8.86875 22.6205 8.25 23.3767 8.25Z" fill="#343434"/>
</svg>
