<svg width="42" height="55" viewBox="0 0 42 55" fill="none" xmlns="http://www.w3.org/2000/svg">
<path id="Vector" d="M41.1803 41.7154L37.6093 38.0769V23.9744C37.6093 15.3154 33.0696 8.06667 25.1527 6.14872V4.23077C25.1527 1.88974 23.298 0 21.0005 0C18.7029 0 16.8483 1.88974 16.8483 4.23077V6.14872C8.90368 8.06667 4.3916 15.2872 4.3916 23.9744V38.0769L0.820692 41.7154C-0.92324 43.4923 0.294744 46.5385 2.75839 46.5385H39.2149C41.7062 46.5385 42.9242 43.4923 41.1803 41.7154ZM32.0731 40.8974H9.92789V23.9744C9.92789 16.9795 14.1078 11.2821 21.0005 11.2821C27.8932 11.2821 32.0731 16.9795 32.0731 23.9744V40.8974ZM21.0005 55C24.0454 55 26.5368 52.4615 26.5368 49.359H15.4642C15.4642 52.4615 17.9278 55 21.0005 55Z" fill="#BA7489"/>
</svg>
