<svg width="61" height="46" viewBox="0 0 61 46" fill="none" xmlns="http://www.w3.org/2000/svg">
<path id="Vector" fill-rule="evenodd" clip-rule="evenodd" d="M57.1875 46C57.1875 46 61 46 61 42.1667C61 38.3333 57.1875 26.8333 41.9375 26.8333C26.6875 26.8333 22.875 38.3333 22.875 42.1667C22.875 46 26.6875 46 26.6875 46H57.1875ZM26.7714 42.1667H57.1036C57.1215 42.1646 57.1393 42.162 57.157 42.159L57.1875 42.1513C57.1799 41.1393 56.5508 38.203 54.29 35.558C52.1855 33.0778 48.4874 30.6667 41.9375 30.6667C35.3914 30.6667 31.6933 33.0817 29.585 35.558C27.3242 38.203 26.6913 41.1432 26.6875 42.1513C26.7154 42.1567 26.7434 42.1619 26.7714 42.1667ZM41.9375 19.1667C43.9598 19.1667 45.8992 18.3589 47.3292 16.9212C48.7592 15.4834 49.5625 13.5333 49.5625 11.5C49.5625 9.46667 48.7592 7.51663 47.3292 6.07885C45.8992 4.64107 43.9598 3.83333 41.9375 3.83333C39.9152 3.83333 37.9758 4.64107 36.5458 6.07885C35.1158 7.51663 34.3125 9.46667 34.3125 11.5C34.3125 13.5333 35.1158 15.4834 36.5458 16.9212C37.9758 18.3589 39.9152 19.1667 41.9375 19.1667ZM53.375 11.5C53.375 13.0102 53.0792 14.5056 52.5044 15.9009C51.9296 17.2961 51.0871 18.5639 50.025 19.6317C48.963 20.6996 47.7021 21.5467 46.3144 22.1246C44.9268 22.7025 43.4395 23 41.9375 23C40.4355 23 38.9482 22.7025 37.5606 22.1246C36.1729 21.5467 34.912 20.6996 33.85 19.6317C32.7879 18.5639 31.9454 17.2961 31.3706 15.9009C30.7958 14.5056 30.5 13.0102 30.5 11.5C30.5 8.45001 31.705 5.52494 33.85 3.36827C35.9949 1.2116 38.9041 0 41.9375 0C44.9709 0 47.8801 1.2116 50.025 3.36827C52.17 5.52494 53.375 8.45001 53.375 11.5ZM26.4435 27.9067C24.9184 27.4238 23.3464 27.1064 21.7541 26.9598C20.8595 26.8743 19.9612 26.8321 19.0625 26.8333C3.8125 26.8333 0 38.3333 0 42.1667C0 44.7235 1.26956 46 3.8125 46H19.886C19.3208 44.8033 19.039 43.4912 19.0625 42.1667C19.0625 38.295 20.4998 34.339 23.2181 31.0347C24.1446 29.9077 25.2235 28.8535 26.4435 27.9067ZM18.7575 30.6667C12.3983 30.7433 8.78781 33.12 6.71 35.558C4.43394 38.2183 3.8125 41.1662 3.8125 42.1667H15.25C15.25 38.1608 16.4814 34.1703 18.7575 30.6667ZM5.71875 13.4167C5.71875 10.3667 6.92377 7.44161 9.06872 5.28494C11.2137 3.12827 14.1228 1.91667 17.1562 1.91667C20.1897 1.91667 23.0988 3.12827 25.2438 5.28494C27.3887 7.44161 28.5938 10.3667 28.5938 13.4167C28.5938 16.4667 27.3887 19.3917 25.2438 21.5484C23.0988 23.7051 20.1897 24.9167 17.1562 24.9167C14.1228 24.9167 11.2137 23.7051 9.06872 21.5484C6.92377 19.3917 5.71875 16.4667 5.71875 13.4167ZM17.1562 5.75C15.134 5.75 13.1945 6.55774 11.7646 7.99551C10.3346 9.43329 9.53125 11.3833 9.53125 13.4167C9.53125 15.45 10.3346 17.4 11.7646 18.8378C13.1945 20.2756 15.134 21.0833 17.1562 21.0833C19.1785 21.0833 21.118 20.2756 22.5479 18.8378C23.9779 17.4 24.7812 15.45 24.7812 13.4167C24.7812 11.3833 23.9779 9.43329 22.5479 7.99551C21.118 6.55774 19.1785 5.75 17.1562 5.75Z" fill="#BA7489"/>
</svg>
