<svg width="35" height="35" viewBox="0 0 35 35" fill="none" xmlns="http://www.w3.org/2000/svg">
<path d="M23.2991 21.1043H22.1471L21.7387 20.7106C23.4887 18.6689 24.3929 15.8835 23.8971 12.9231C23.2116 8.86893 19.8283 5.63143 15.745 5.1356C9.57622 4.37726 4.38456 9.56893 5.14289 15.7377C5.63872 19.821 8.87622 23.2043 12.9304 23.8898C15.8908 24.3856 18.6762 23.4814 20.7179 21.7314L21.1116 22.1398V23.2918L27.3096 29.4898C27.9075 30.0877 28.8846 30.0877 29.4825 29.4898C30.0804 28.8918 30.0804 27.9148 29.4825 27.3168L23.2991 21.1043ZM14.5491 21.1043C10.9179 21.1043 7.98664 18.1731 7.98664 14.5418C7.98664 10.9106 10.9179 7.97935 14.5491 7.97935C18.1804 7.97935 21.1116 10.9106 21.1116 14.5418C21.1116 18.1731 18.1804 21.1043 14.5491 21.1043Z" fill="#B3747C"/>
</svg>
