<svg width="58" height="59" viewBox="0 0 58 59" fill="none" xmlns="http://www.w3.org/2000/svg">
<path d="M29 34.4167C31.6694 34.4167 33.8333 32.2154 33.8333 29.5C33.8333 26.7846 31.6694 24.5833 29 24.5833C26.3306 24.5833 24.1667 26.7846 24.1667 29.5C24.1667 32.2154 26.3306 34.4167 29 34.4167Z" fill="#343434"/>
<path d="M45.9167 7.375H12.0833C9.40083 7.375 7.25 9.5875 7.25 12.2917V46.7083C7.25 49.4125 9.40083 51.625 12.0833 51.625H45.9167C48.5992 51.625 50.75 49.4125 50.75 46.7083V12.2917C50.75 9.5875 48.5992 7.375 45.9167 7.375ZM38.0625 29.5C38.0625 30.0408 37.99 30.5325 37.9175 31.0487L39.9475 32.8433C40.3825 33.2367 40.4792 33.8758 40.1892 34.3921L38.7633 36.8996C38.4733 37.4158 37.8692 37.6371 37.3375 37.4404L34.7758 36.5554C34.0025 37.2192 33.1325 37.7354 32.1658 38.1042L31.6342 40.7837C31.5133 41.3492 31.03 41.7671 30.45 41.7671H27.5983C27.0183 41.7671 26.535 41.3492 26.4142 40.7837L25.8825 38.1042C24.9158 37.7354 24.0458 37.2192 23.2725 36.5554L20.7108 37.4404C20.155 37.6371 19.575 37.3912 19.285 36.8996L17.8592 34.3921C17.5692 33.8758 17.6658 33.2367 18.1008 32.8433L20.1308 31.0487C20.01 30.5325 19.9375 30.0408 19.9375 29.5C19.9375 28.9592 20.01 28.4675 20.0825 27.9512L18.0525 26.1567C17.6175 25.7633 17.5208 25.1242 17.8108 24.6079L19.2367 22.1004C19.5267 21.5842 20.1308 21.3629 20.6625 21.5596L23.2242 22.4446C23.9975 21.7808 24.8675 21.2646 25.8342 20.8958L26.3658 18.2162C26.5108 17.6262 26.9942 17.2083 27.5742 17.2083H30.4258C31.0058 17.2083 31.4892 17.6262 31.61 18.1917L32.1417 20.8712C33.1083 21.24 33.9783 21.7562 34.7517 22.42L37.3133 21.535C37.8692 21.3383 38.4492 21.5842 38.7392 22.0758L40.165 24.5833C40.455 25.0996 40.3583 25.7387 39.9233 26.1321L37.8933 27.9267C37.99 28.4675 38.0625 28.9592 38.0625 29.5Z" fill="#343434"/>
</svg>
